<svg width="32" height="32" viewBox="0 0 32 32" fill="none" xmlns="http://www.w3.org/2000/svg">
<path d="M31.4009 27.591L25.5659 21.771C29.1129 16.514 28.5579 9.32301 23.8929 4.67401C18.5919 -0.608989 9.99393 -0.608989 4.68693 4.67401C-0.614069 9.95701 -0.614069 18.521 4.68693 23.806C9.31593 28.418 16.4519 28.999 21.7219 25.565C21.7249 25.568 21.7249 25.571 21.7279 25.576L27.5739 31.404C28.2789 32.107 29.4249 32.107 30.1249 31.404L31.3989 30.135C32.1059 29.429 32.1059 28.291 31.3999 27.592L31.4009 27.591ZM6.70393 21.793C2.51293 17.619 2.51293 10.851 6.70393 6.67601C10.8919 2.50201 17.6839 2.50201 21.8729 6.67601C26.0649 10.852 26.0649 17.619 21.8729 21.793C17.6849 25.967 10.8909 25.967 6.70393 21.793V21.793Z" fill="#999999"/>
</svg>
